# Blender v3.0.0 OBJ File: 'button.blend'
# www.blender.org
mtllib button.mtl
o Cube
v 1.000000 0.187500 -1.000000
v 1.000000 -0.062500 -1.000000
v 1.000000 0.187500 1.000000
v 1.000000 -0.062500 1.000000
v -1.000000 0.187500 -1.000000
v -1.000000 -0.062500 -1.000000
v -1.000000 0.187500 1.000000
v -1.000000 -0.062500 1.000000
v 0.000000 0.125000 -0.900000
v 0.000000 0.375000 -0.900000
v 0.140791 0.125000 -0.888920
v 0.140791 0.375000 -0.888920
v 0.278115 0.125000 -0.855951
v 0.278115 0.375000 -0.855951
v 0.408591 0.125000 -0.801906
v 0.408591 0.375000 -0.801906
v 0.529007 0.125000 -0.728115
v 0.529007 0.375000 -0.728115
v 0.636396 0.125000 -0.636396
v 0.636396 0.375000 -0.636396
v 0.728115 0.125000 -0.529007
v 0.728115 0.375000 -0.529007
v 0.801906 0.125000 -0.408591
v 0.801906 0.375000 -0.408591
v 0.855951 0.125000 -0.278115
v 0.855951 0.375000 -0.278115
v 0.888920 0.125000 -0.140791
v 0.888920 0.375000 -0.140791
v 0.900000 0.125000 0.000000
v 0.900000 0.375000 0.000000
v 0.888920 0.125000 0.140791
v 0.888920 0.375000 0.140791
v 0.855951 0.125000 0.278115
v 0.855951 0.375000 0.278115
v 0.801906 0.125000 0.408592
v 0.801906 0.375000 0.408592
v 0.728115 0.125000 0.529007
v 0.728115 0.375000 0.529007
v 0.636396 0.125000 0.636396
v 0.636396 0.375000 0.636396
v 0.529007 0.125000 0.728115
v 0.529007 0.375000 0.728115
v 0.408592 0.125000 0.801906
v 0.408592 0.375000 0.801906
v 0.278115 0.125000 0.855951
v 0.278115 0.375000 0.855951
v 0.140791 0.125000 0.888920
v 0.140791 0.375000 0.888920
v -0.000000 0.125000 0.900000
v -0.000000 0.375000 0.900000
v -0.140791 0.125000 0.888920
v -0.140791 0.375000 0.888920
v -0.278115 0.125000 0.855951
v -0.278115 0.375000 0.855951
v -0.408591 0.125000 0.801906
v -0.408591 0.375000 0.801906
v -0.529007 0.125000 0.728115
v -0.529007 0.375000 0.728115
v -0.636396 0.125000 0.636396
v -0.636396 0.375000 0.636396
v -0.728115 0.125000 0.529007
v -0.728115 0.375000 0.529007
v -0.801906 0.125000 0.408592
v -0.801906 0.375000 0.408592
v -0.855951 0.125000 0.278115
v -0.855951 0.375000 0.278115
v -0.888919 0.125000 0.140791
v -0.888919 0.375000 0.140791
v -0.900000 0.125000 -0.000000
v -0.900000 0.375000 -0.000000
v -0.888919 0.125000 -0.140791
v -0.888919 0.375000 -0.140791
v -0.855951 0.125000 -0.278115
v -0.855951 0.375000 -0.278115
v -0.801906 0.125000 -0.408592
v -0.801906 0.375000 -0.408592
v -0.728115 0.125000 -0.529007
v -0.728115 0.375000 -0.529007
v -0.636396 0.125000 -0.636396
v -0.636396 0.375000 -0.636396
v -0.529007 0.125000 -0.728115
v -0.529007 0.375000 -0.728115
v -0.408591 0.125000 -0.801906
v -0.408591 0.375000 -0.801906
v -0.278115 0.125000 -0.855951
v -0.278115 0.375000 -0.855951
v -0.140791 0.125000 -0.888920
v -0.140791 0.375000 -0.888920
vt 0.625000 0.500000
vt 0.875000 0.500000
vt 0.875000 0.750000
vt 0.625000 0.750000
vt 0.375000 0.750000
vt 0.625000 1.000000
vt 0.375000 1.000000
vt 0.375000 0.000000
vt 0.625000 0.000000
vt 0.625000 0.250000
vt 0.375000 0.250000
vt 0.125000 0.500000
vt 0.375000 0.500000
vt 0.125000 0.750000
vt 1.000000 0.500000
vt 1.000000 1.000000
vt 0.975000 1.000000
vt 0.975000 0.500000
vt 0.950000 1.000000
vt 0.950000 0.500000
vt 0.925000 1.000000
vt 0.925000 0.500000
vt 0.900000 1.000000
vt 0.900000 0.500000
vt 0.875000 1.000000
vt 0.875000 0.500000
vt 0.850000 1.000000
vt 0.850000 0.500000
vt 0.825000 1.000000
vt 0.825000 0.500000
vt 0.800000 1.000000
vt 0.800000 0.500000
vt 0.775000 1.000000
vt 0.775000 0.500000
vt 0.750000 1.000000
vt 0.750000 0.500000
vt 0.725000 1.000000
vt 0.725000 0.500000
vt 0.700000 1.000000
vt 0.700000 0.500000
vt 0.675000 1.000000
vt 0.675000 0.500000
vt 0.650000 1.000000
vt 0.650000 0.500000
vt 0.625000 1.000000
vt 0.625000 0.500000
vt 0.600000 1.000000
vt 0.600000 0.500000
vt 0.575000 1.000000
vt 0.575000 0.500000
vt 0.550000 1.000000
vt 0.550000 0.500000
vt 0.525000 1.000000
vt 0.525000 0.500000
vt 0.500000 1.000000
vt 0.500000 0.500000
vt 0.475000 1.000000
vt 0.475000 0.500000
vt 0.450000 1.000000
vt 0.450000 0.500000
vt 0.425000 1.000000
vt 0.425000 0.500000
vt 0.400000 1.000000
vt 0.400000 0.500000
vt 0.375000 1.000000
vt 0.375000 0.500000
vt 0.350000 1.000000
vt 0.350000 0.500000
vt 0.325000 1.000000
vt 0.325000 0.500000
vt 0.300000 1.000000
vt 0.300000 0.500000
vt 0.275000 1.000000
vt 0.275000 0.500000
vt 0.250000 1.000000
vt 0.250000 0.500000
vt 0.225000 1.000000
vt 0.225000 0.500000
vt 0.200000 1.000000
vt 0.200000 0.500000
vt 0.175000 1.000000
vt 0.175000 0.500000
vt 0.150000 1.000000
vt 0.150000 0.500000
vt 0.125000 1.000000
vt 0.125000 0.500000
vt 0.100000 1.000000
vt 0.100000 0.500000
vt 0.075000 1.000000
vt 0.075000 0.500000
vt 0.050000 1.000000
vt 0.050000 0.500000
vt 0.287544 0.487045
vt 0.250000 0.490000
vt 0.212456 0.487045
vt 0.175836 0.478254
vt 0.141042 0.463842
vt 0.108932 0.444164
vt 0.080294 0.419706
vt 0.055836 0.391068
vt 0.036158 0.358958
vt 0.021746 0.324164
vt 0.012955 0.287544
vt 0.010000 0.250000
vt 0.012955 0.212456
vt 0.021746 0.175836
vt 0.036158 0.141042
vt 0.055836 0.108932
vt 0.080294 0.080294
vt 0.108931 0.055836
vt 0.141042 0.036158
vt 0.175836 0.021746
vt 0.212456 0.012955
vt 0.250000 0.010000
vt 0.287544 0.012955
vt 0.324164 0.021746
vt 0.358958 0.036158
vt 0.391068 0.055836
vt 0.419706 0.080294
vt 0.444164 0.108932
vt 0.463842 0.141042
vt 0.478254 0.175836
vt 0.487045 0.212456
vt 0.490000 0.250000
vt 0.487045 0.287544
vt 0.478254 0.324164
vt 0.463842 0.358958
vt 0.444164 0.391068
vt 0.419706 0.419706
vt 0.391068 0.444164
vt 0.358958 0.463842
vt 0.324164 0.478254
vt 0.025000 1.000000
vt 0.025000 0.500000
vt 0.000000 1.000000
vt 0.000000 0.500000
vt 0.750000 0.490000
vt 0.787544 0.487045
vt 0.824164 0.478254
vt 0.858958 0.463842
vt 0.891068 0.444164
vt 0.919706 0.419706
vt 0.944164 0.391068
vt 0.963842 0.358958
vt 0.978254 0.324164
vt 0.987045 0.287544
vt 0.990000 0.250000
vt 0.987045 0.212456
vt 0.978254 0.175836
vt 0.963842 0.141042
vt 0.944164 0.108932
vt 0.919706 0.080294
vt 0.891068 0.055836
vt 0.858958 0.036158
vt 0.824164 0.021746
vt 0.787544 0.012955
vt 0.750000 0.010000
vt 0.712456 0.012955
vt 0.675836 0.021746
vt 0.641042 0.036158
vt 0.608931 0.055836
vt 0.580294 0.080294
vt 0.555836 0.108932
vt 0.536158 0.141042
vt 0.521746 0.175836
vt 0.512955 0.212456
vt 0.510000 0.250000
vt 0.512955 0.287544
vt 0.521746 0.324164
vt 0.536158 0.358958
vt 0.555836 0.391068
vt 0.580294 0.419706
vt 0.608932 0.444164
vt 0.641042 0.463842
vt 0.675836 0.478254
vt 0.712456 0.487045
vn 0.0000 1.0000 0.0000
vn 0.0000 0.0000 1.0000
vn -1.0000 0.0000 0.0000
vn 0.0000 -1.0000 0.0000
vn 1.0000 0.0000 0.0000
vn 0.0000 0.0000 -1.0000
vn 0.0785 0.0000 -0.9969
vn 0.2334 0.0000 -0.9724
vn 0.3827 0.0000 -0.9239
vn 0.5225 0.0000 -0.8526
vn 0.6494 0.0000 -0.7604
vn 0.7604 0.0000 -0.6494
vn 0.8526 0.0000 -0.5225
vn 0.9239 0.0000 -0.3827
vn 0.9724 0.0000 -0.2334
vn 0.9969 0.0000 -0.0785
vn 0.9969 0.0000 0.0785
vn 0.9724 0.0000 0.2334
vn 0.9239 0.0000 0.3827
vn 0.8526 0.0000 0.5225
vn 0.7604 0.0000 0.6494
vn 0.6494 0.0000 0.7604
vn 0.5225 0.0000 0.8526
vn 0.3827 0.0000 0.9239
vn 0.2334 0.0000 0.9724
vn 0.0785 0.0000 0.9969
vn -0.0785 0.0000 0.9969
vn -0.2334 0.0000 0.9724
vn -0.3827 0.0000 0.9239
vn -0.5225 0.0000 0.8526
vn -0.6494 0.0000 0.7604
vn -0.7604 0.0000 0.6494
vn -0.8526 0.0000 0.5225
vn -0.9239 0.0000 0.3827
vn -0.9724 0.0000 0.2334
vn -0.9969 0.0000 0.0785
vn -0.9969 0.0000 -0.0785
vn -0.9724 0.0000 -0.2334
vn -0.9239 0.0000 -0.3827
vn -0.8526 0.0000 -0.5225
vn -0.7604 0.0000 -0.6494
vn -0.6494 0.0000 -0.7604
vn -0.5225 0.0000 -0.8526
vn -0.3827 0.0000 -0.9239
vn -0.2334 0.0000 -0.9724
vn -0.0785 0.0000 -0.9969
usemtl Material
s off
f 1/1/1 5/2/1 7/3/1 3/4/1
f 4/5/2 3/4/2 7/6/2 8/7/2
f 8/8/3 7/9/3 5/10/3 6/11/3
f 6/12/4 2/13/4 4/5/4 8/14/4
f 2/13/5 1/1/5 3/4/5 4/5/5
f 6/11/6 5/10/6 1/1/6 2/13/6
f 9/15/7 10/16/7 12/17/7 11/18/7
f 11/18/8 12/17/8 14/19/8 13/20/8
f 13/20/9 14/19/9 16/21/9 15/22/9
f 15/22/10 16/21/10 18/23/10 17/24/10
f 17/24/11 18/23/11 20/25/11 19/26/11
f 19/26/12 20/25/12 22/27/12 21/28/12
f 21/28/13 22/27/13 24/29/13 23/30/13
f 23/30/14 24/29/14 26/31/14 25/32/14
f 25/32/15 26/31/15 28/33/15 27/34/15
f 27/34/16 28/33/16 30/35/16 29/36/16
f 29/36/17 30/35/17 32/37/17 31/38/17
f 31/38/18 32/37/18 34/39/18 33/40/18
f 33/40/19 34/39/19 36/41/19 35/42/19
f 35/42/20 36/41/20 38/43/20 37/44/20
f 37/44/21 38/43/21 40/45/21 39/46/21
f 39/46/22 40/45/22 42/47/22 41/48/22
f 41/48/23 42/47/23 44/49/23 43/50/23
f 43/50/24 44/49/24 46/51/24 45/52/24
f 45/52/25 46/51/25 48/53/25 47/54/25
f 47/54/26 48/53/26 50/55/26 49/56/26
f 49/56/27 50/55/27 52/57/27 51/58/27
f 51/58/28 52/57/28 54/59/28 53/60/28
f 53/60/29 54/59/29 56/61/29 55/62/29
f 55/62/30 56/61/30 58/63/30 57/64/30
f 57/64/31 58/63/31 60/65/31 59/66/31
f 59/66/32 60/65/32 62/67/32 61/68/32
f 61/68/33 62/67/33 64/69/33 63/70/33
f 63/70/34 64/69/34 66/71/34 65/72/34
f 65/72/35 66/71/35 68/73/35 67/74/35
f 67/74/36 68/73/36 70/75/36 69/76/36
f 69/76/37 70/75/37 72/77/37 71/78/37
f 71/78/38 72/77/38 74/79/38 73/80/38
f 73/80/39 74/79/39 76/81/39 75/82/39
f 75/82/40 76/81/40 78/83/40 77/84/40
f 77/84/41 78/83/41 80/85/41 79/86/41
f 79/86/42 80/85/42 82/87/42 81/88/42
f 81/88/43 82/87/43 84/89/43 83/90/43
f 83/90/44 84/89/44 86/91/44 85/92/44
f 12/93/1 10/94/1 88/95/1 86/96/1 84/97/1 82/98/1 80/99/1 78/100/1 76/101/1 74/102/1 72/103/1 70/104/1 68/105/1 66/106/1 64/107/1 62/108/1 60/109/1 58/110/1 56/111/1 54/112/1 52/113/1 50/114/1 48/115/1 46/116/1 44/117/1 42/118/1 40/119/1 38/120/1 36/121/1 34/122/1 32/123/1 30/124/1 28/125/1 26/126/1 24/127/1 22/128/1 20/129/1 18/130/1 16/131/1 14/132/1
f 85/92/45 86/91/45 88/133/45 87/134/45
f 87/134/46 88/133/46 10/135/46 9/136/46
f 9/137/4 11/138/4 13/139/4 15/140/4 17/141/4 19/142/4 21/143/4 23/144/4 25/145/4 27/146/4 29/147/4 31/148/4 33/149/4 35/150/4 37/151/4 39/152/4 41/153/4 43/154/4 45/155/4 47/156/4 49/157/4 51/158/4 53/159/4 55/160/4 57/161/4 59/162/4 61/163/4 63/164/4 65/165/4 67/166/4 69/167/4 71/168/4 73/169/4 75/170/4 77/171/4 79/172/4 81/173/4 83/174/4 85/175/4 87/176/4
